# xmcd CD database file
#
# Track frame offsets:
#	150
#	28268
#	71130
#	105333
#	128293
#	160110
#	160517
#	180627
#	201475
#	218282
#
# Disc length: 3204 seconds
#
# Revision: 0
# Processed by: cddbd v1.4PL0 Copyright (c) Steve Scherf et al.
# Submitted via: CDex 1.50Beta7
#
DISCID=7a0c820a
DTITLE=Patricia Barber - A distortion of love
DYEAR=1900
DGENRE=Jazz
TTITLE0=Summertime
TTITLE1=Subway Station
TTITLE2=You Stepped Out Of A Dream
TTITLE3=Parts Parallels
TTITLE4=Or Not To Be
TTITLE5=Yellow Car
TTITLE6=Yet Another In A Long Serie Of Yellow Car
TTITLE7=I Never Went Away
TTITLE8=My Girl
TTITLE9=Be Myself
EXTD=
EXTT0=
EXTT1=
EXTT2=
EXTT3=
EXTT4=
EXTT5=
EXTT6=
EXTT7=
EXTT8=
EXTT9=
PLAYORDER=
